<svg xmlns="http://www.w3.org/2000/svg" width="22.152" height="19.505" viewBox="0 0 22.152 19.505"><g transform="translate(0 -30.536)"><g transform="translate(0 30.536)"><path d="M3.224,50.041H1.655l1.11-1.11A3.756,3.756,0,0,0,3.837,46.71,8.459,8.459,0,0,1,.522,42.79,7.676,7.676,0,0,1,.3,37.872,9.63,9.63,0,0,1,3.99,32.72a12.057,12.057,0,0,1,7.123-2.184,11.941,11.941,0,0,1,8.233,2.806,8.424,8.424,0,0,1,2.1,9.65,8.665,8.665,0,0,1-2.106,2.931,11.913,11.913,0,0,1-8.228,2.817,14.971,14.971,0,0,1-3.724-.474,5.816,5.816,0,0,1-4.165,1.774Zm7.889-18.2c-5.376,0-8.675,3.206-9.56,6.384-.836,3,.4,5.84,3.3,7.59l.324.2-.01.378a5.12,5.12,0,0,1-.518,2.122,4.606,4.606,0,0,0,2.037-1.394l.275-.325.408.122a13.449,13.449,0,0,0,3.748.531c6.691,0,9.739-4.052,9.739-7.816A7.151,7.151,0,0,0,18.469,34.3a10.675,10.675,0,0,0-7.356-2.466Z" transform="translate(0 -30.536)"/></g></g></svg>