<svg xmlns="http://www.w3.org/2000/svg" width="20.048" height="18.377" viewBox="0 0 20.048 18.377"><g transform="translate(-167 68.667)"><g transform="translate(167 -68.667)"><path d="M14.827,21.333c-2.224,0-4.06,2.065-4.8,3.04-.743-.975-2.579-3.04-4.8-3.04C2.342,21.333,0,23.98,0,27.233a6.162,6.162,0,0,0,1.937,4.56A.413.413,0,0,0,2,31.878l7.726,7.71a.417.417,0,0,0,.59,0l7.983-7.98.082-.08c.065-.062.13-.124.2-.2a.406.406,0,0,0,.074-.1,6.306,6.306,0,0,0,1.387-3.992C20.048,23.98,17.706,21.333,14.827,21.333Zm3.139,9.422a.389.389,0,0,0-.031.042c-.039.045-.082.084-.124.125L10.024,38.7l-7.335-7.32a.419.419,0,0,0-.1-.124A5.312,5.312,0,0,1,.835,27.233c0-2.792,1.967-5.064,4.385-5.064,2.391,0,4.432,3.119,4.452,3.15a.435.435,0,0,0,.7,0c.02-.031,2.061-3.15,4.452-3.15,2.418,0,4.385,2.272,4.385,5.064A5.462,5.462,0,0,1,17.966,30.755Z" transform="translate(0 -21.333)"/></g></g></svg>