<svg xmlns="http://www.w3.org/2000/svg" width="77" height="18.334" viewBox="0 0 77 18.334">
  <g id="Group_13" data-name="Group 13" transform="translate(-904.266 -4324.955)">
    <path id="left-arrow" d="M39.083,20.25H10.8l7-6.67a.917.917,0,1,0-1.265-1.328l-8,7.617a1.833,1.833,0,0,0,.016,2.608l7.981,7.6A.917.917,0,1,0,17.8,28.753l-7.032-6.67H39.083a.917.917,0,1,0,0-1.833Z" transform="translate(896.266 4312.955)" fill="#dec191"/>
    <path id="left-arrow-2" data-name="left-arrow" d="M39.083,20.25H10.8l7-6.67a.917.917,0,1,0-1.265-1.328l-8,7.617a1.833,1.833,0,0,0,.016,2.608l7.981,7.6A.917.917,0,1,0,17.8,28.753l-7.032-6.67H39.083a.917.917,0,1,0,0-1.833Z" transform="translate(989.266 4355.288) rotate(180)" fill="#dec191"/>
    <g id="Path_11" data-name="Path 11" transform="translate(934.766 4326.121)" fill="#fff">
      <path d="M 8.5 16 C 4.364490032196045 16 1 12.63551044464111 1 8.5 C 1 4.364490032196045 4.364490032196045 1 8.5 1 C 12.63551044464111 1 16 4.364490032196045 16 8.5 C 16 12.63551044464111 12.63551044464111 16 8.5 16 Z" stroke="none"/>
      <path d="M 8.5 2 C 4.915889739990234 2 2 4.915889739990234 2 8.5 C 2 12.08411026000977 4.915889739990234 15 8.5 15 C 12.08411026000977 15 15 12.08411026000977 15 8.5 C 15 4.915889739990234 12.08411026000977 2 8.5 2 M 8.5 0 C 13.19441986083984 0 17 3.805580139160156 17 8.5 C 17 13.19441986083984 13.19441986083984 17 8.5 17 C 3.805580139160156 17 0 13.19441986083984 0 8.5 C 0 3.805580139160156 3.805580139160156 0 8.5 0 Z" stroke="none" fill="#ddc292"/>
    </g>
  </g>
</svg>
